<?xml version="1.0" standalone="no"?><!DOCTYPE svg PUBLIC "-//W3C//DTD SVG 1.1//EN" "http://www.w3.org/Graphics/SVG/1.1/DTD/svg11.dtd"><svg t="1604644331201" class="icon" viewBox="0 0 1024 1024" version="1.1" xmlns="http://www.w3.org/2000/svg" p-id="803" xmlns:xlink="http://www.w3.org/1999/xlink" width="200" height="200"><defs><style type="text/css"></style></defs><path d="M497.54 63.87c217.92 0 394.58 176.66 394.58 394.58 0 114.55-48.81 217.7-126.77 289.78l149.1 149.16c14.22 14.22 14.22 37.29 0 51.51-14.22 14.22-37.29 14.22-51.51 0L706.96 792.92c-60.69 38.08-132.49 60.1-209.42 60.1-217.92 0-394.58-176.66-394.58-394.58S279.62 63.87 497.54 63.87z m0 72.84c-177.69 0-321.73 144.04-321.73 321.73s144.04 321.73 321.73 321.73 321.73-144.04 321.73-321.73-144.04-321.73-321.73-321.73z" fill="#333333" p-id="804"></path></svg>